<?xml version="1.0" encoding="UTF-8" standalone="no"?><!DOCTYPE svg PUBLIC "-//W3C//DTD SVG 1.1//EN" "http://www.w3.org/Graphics/SVG/1.1/DTD/svg11.dtd"><svg width="100%" height="100%" viewBox="0 0 302 79" version="1.1" xmlns="http://www.w3.org/2000/svg" xmlns:xlink="http://www.w3.org/1999/xlink" xml:space="preserve" xmlns:serif="http://www.serif.com/" style="fill-rule:evenodd;clip-rule:evenodd;stroke-linejoin:round;stroke-miterlimit:2;"><path d="M31.665,0c-17.13,0.038 -31.05,13.635 -31.635,30.615l-0.03,0l0.097,48.218c0,0 15.076,-0.45 15.046,-14.693c-0.031,-14.242 -0.068,-33.562 -0.068,-33.562l-0.045,0c0.593,-8.693 7.815,-15.578 16.665,-15.593c9.247,-0.022 16.755,7.463 16.777,16.71c0.015,7.95 -5.512,14.595 -12.937,16.32c-3.518,0.855 -5.715,0.833 -5.948,1.29l0.218,0.735l3.72,9.99l1.312,3.278c16.095,-1.56 28.658,-15.143 28.628,-31.643c-0.045,-17.527 -14.28,-31.702 -31.8,-31.665Z" style="fill:#fff;fill-rule:nonzero;"/><path d="M31.665,0c-17.13,0.038 -31.05,13.635 -31.635,30.615l-0.03,0l0.097,48.218c0,0 15.076,-0.45 15.046,-14.693c-0.031,-14.242 -0.068,-33.562 -0.068,-33.562l-0.045,0c0.593,-8.693 7.815,-15.578 16.665,-15.593c6.862,-0.015 12.772,4.103 15.367,10.005c0.9,2.048 14.423,-5.842 11.078,-10.852c-5.7,-8.543 -15.435,-14.16 -26.475,-14.138Z" style="fill:none;fill-rule:nonzero;"/><g><clipPath id="_clip1"><path d="M31.665,0c-17.13,0.038 -31.05,13.635 -31.635,30.615l-0.03,0l0.097,48.218c0,0 15.076,-0.45 15.046,-14.693c-0.031,-14.242 -0.068,-33.562 -0.068,-33.562l-0.045,0c0.593,-8.693 7.815,-15.578 16.665,-15.593c9.247,-0.022 16.755,7.463 16.777,16.71c0.015,7.95 -5.512,14.595 -12.937,16.32c-3.518,0.855 -5.715,0.833 -5.948,1.29l0.218,0.735l3.72,9.99l1.312,3.278c16.095,-1.56 28.658,-15.143 28.628,-31.643c-0.045,-17.527 -14.28,-31.702 -31.8,-31.665Z"/></clipPath><g clip-path="url(#_clip1)"><path d="M43.822,22.358c-5.857,9.307 -12.862,15.435 -15.652,13.687c-2.79,-1.747 -0.308,-10.71 5.55,-20.017c5.857,-9.308 12.862,-15.435 15.653,-13.688c2.789,1.748 0.307,10.71 -5.551,20.018Z" style="fill:url(#_Radial2);fill-rule:nonzero;"/><path d="M20.46,70.208c-0.668,-0.758 -1.125,-1.808 -1.455,-3.06c-1.32,-5.085 -0.458,-13.5 -2.948,-19.178c-4.522,-10.32 0.563,-22.185 11.355,-26.512c4.298,-1.718 3.45,3.705 7.658,4.657l2.483,-0.007l9.652,-22.725c-8.625,-2.49 -22.365,-6.473 -31.32,-2.88c-20.452,8.197 -26.422,35.767 -17.85,55.32c3.278,7.485 8.843,13.312 15.593,17.197c9.87,5.685 7.837,-1.68 6.832,-2.812Z" style="fill:url(#_Radial3);fill-rule:nonzero;"/><path d="M49.185,30.675c0.015,8.355 -5.797,15.338 -13.597,17.153c-4.133,0.487 -6,0.87 -6.248,1.35l0.232,0.772l3.908,10.5l1.38,3.443c16.913,-1.643 30.12,-15.915 30.082,-33.248c-0.044,-18.42 -15.78,-9.69 -15.757,0.03Z" style="fill:url(#_Linear4);fill-rule:nonzero;"/></g></g><path d="M41.22,53.543c-1.178,-1.883 -11.49,-3.068 -11.655,-4.2l1.98,6.465l9.742,2.257l-0.067,-4.522Z" style="fill:url(#_Linear5);fill-rule:nonzero;"/><path d="M48.09,66.3l-6.87,-12.757c-0.068,0.202 -0.405,0.405 -1.088,0.607c-7.732,1.68 -15.81,-2.325 -18.982,-9.885c-3.578,-8.527 0.442,-18.337 8.97,-21.915c3.157,-1.32 6.48,-1.605 9.608,-1.005c0.082,0.015 0.239,0.045 0.239,0.045l5.79,-13.98c-6.81,-2.062 -14.355,-1.852 -21.435,1.118c-16.162,6.772 -23.767,25.365 -16.995,41.527c0.998,2.385 2.243,4.568 3.69,6.533c7.898,10.755 21.946,15.57 34.981,11.505c-0.001,0 0.412,-0.135 0.592,-0.203c1.275,-0.472 1.575,-1.222 1.5,-1.59Z" style="fill:#fff;fill-rule:nonzero;"/><path d="M48.09,66.3l-6.87,-12.757c-0.068,0.202 -0.405,0.405 -1.088,0.607c-7.732,1.68 -15.81,-2.325 -18.982,-9.885c-3.578,-8.527 -20.595,-10.365 -13.823,5.79c6.375,15.218 23.235,22.845 38.67,18.03c0,0 0.413,-0.135 0.593,-0.202c1.275,-0.465 1.575,-1.215 1.5,-1.583Z" style="fill:url(#_Linear6);fill-rule:nonzero;"/><g><path d="M31.665,0c-17.13,0.038 -31.05,13.635 -31.635,30.615l-0.03,0l0.097,48.218c0,0 15.076,-0.45 15.046,-14.693c-0.031,-14.242 -0.068,-33.562 -0.068,-33.562l-0.045,0c0.593,-8.693 7.815,-15.578 16.665,-15.593c9.247,-0.022 16.755,7.463 16.777,16.71c0.015,7.95 -5.512,14.595 -12.937,16.32c-3.518,0.855 -5.715,0.833 -5.948,1.29l0.218,0.735l3.72,9.99l1.312,3.278c16.095,-1.56 28.658,-15.143 28.628,-31.643c-0.045,-17.527 -14.28,-31.702 -31.8,-31.665Z" style="fill:url(#_Linear7);fill-rule:nonzero;"/><path d="M41.22,53.543c-1.178,-1.883 -11.49,-3.068 -11.655,-4.2l1.98,6.465l9.742,2.257l-0.067,-4.522Z" style="fill:#008fd6;fill-rule:nonzero;"/><path d="M48.09,66.3l-6.87,-12.757c-0.068,0.202 -0.405,0.405 -1.088,0.607c-7.732,1.68 -15.81,-2.325 -18.982,-9.885c-3.578,-8.527 0.442,-18.337 8.97,-21.915c3.157,-1.32 6.48,-1.605 9.608,-1.005c0.082,0.015 0.239,0.045 0.239,0.045l5.79,-13.98c-6.81,-2.062 -14.355,-1.852 -21.435,1.118c-16.162,6.772 -23.767,25.365 -16.995,41.527c0.998,2.385 2.243,4.568 3.69,6.533c7.898,10.755 21.946,15.57 34.981,11.505c-0.001,0 0.412,-0.135 0.592,-0.203c1.275,-0.472 1.575,-1.222 1.5,-1.59Z" style="fill:url(#_Linear8);fill-rule:nonzero;"/></g><path d="M95.873,24.345c2.099,0.885 3.892,2.078 5.37,3.585l-4.283,5.1c-0.953,-1.162 -2.085,-2.092 -3.405,-2.775c-1.32,-0.682 -2.632,-1.02 -3.953,-1.02c-1.53,0 -2.917,0.375 -4.147,1.118c-1.238,0.742 -2.205,1.755 -2.903,3.052c-0.705,1.29 -1.05,2.73 -1.05,4.32c0,1.613 0.36,3.075 1.065,4.373c0.705,1.297 1.688,2.325 2.925,3.075c1.245,0.75 2.625,1.125 4.148,1.125c1.222,0 2.49,-0.308 3.817,-0.923c1.32,-0.615 2.498,-1.447 3.525,-2.512l4.35,4.575c-1.582,1.62 -3.45,2.917 -5.602,3.892c-2.153,0.975 -4.298,1.463 -6.443,1.47c-2.895,0.008 -5.505,-0.637 -7.845,-1.935c-2.34,-1.297 -4.177,-3.09 -5.52,-5.385c-1.342,-2.287 -2.017,-4.845 -2.025,-7.65c-0.007,-2.782 0.668,-5.295 2.033,-7.53c1.357,-2.235 3.225,-4.005 5.595,-5.302c2.37,-1.298 5.017,-1.958 7.935,-1.965c2.175,-0.008 4.313,0.427 6.413,1.312Z" style="fill:#1c2b6f;fill-rule:nonzero;"/><path d="M126.045,24.893c2.415,1.29 4.305,3.06 5.685,5.302c1.372,2.243 2.07,4.755 2.07,7.538c0.007,2.812 -0.675,5.355 -2.04,7.642c-1.365,2.28 -3.255,4.08 -5.663,5.385c-2.407,1.305 -5.092,1.965 -8.07,1.973c-2.947,0.007 -5.617,-0.638 -8.025,-1.935c-2.407,-1.298 -4.297,-3.083 -5.685,-5.363c-1.38,-2.28 -2.077,-4.822 -2.085,-7.627c-0.007,-2.813 0.675,-5.34 2.048,-7.59c1.372,-2.25 3.255,-4.02 5.64,-5.303c2.385,-1.29 5.062,-1.935 8.04,-1.942c2.985,-0.015 5.67,0.63 8.085,1.92Zm-12.082,5.422c-1.268,0.758 -2.273,1.793 -3.016,3.113c-0.742,1.32 -1.117,2.782 -1.109,4.402c0.007,1.62 0.382,3.09 1.132,4.425c0.75,1.335 1.762,2.385 3.03,3.143c1.267,0.757 2.64,1.132 4.102,1.132c1.478,0 2.835,-0.39 4.073,-1.147c1.23,-0.765 2.212,-1.815 2.932,-3.15c0.72,-1.335 1.08,-2.813 1.08,-4.433c0,-1.62 -0.367,-3.082 -1.095,-4.395c-0.727,-1.312 -1.709,-2.347 -2.947,-3.097c-1.237,-0.75 -2.595,-1.125 -4.073,-1.125c-1.477,0 -2.842,0.375 -4.109,1.132Z" style="fill:#1c2b6f;fill-rule:nonzero;"/><path d="M163.275,52.313l-0.083,-18.975l-6.967,16.08l-4.845,0.007l-7.035,-16.05l0.037,18.975l-6.637,0.015l-0.06,-29.235l8.145,-0.015l7.957,17.37l7.883,-17.407l8.085,-0.015l0.06,29.235l-6.54,0.015Z" style="fill:#1c2b6f;fill-rule:nonzero;"/><path d="M201.203,52.238l-0.083,-18.975l-6.968,16.08l-4.845,0.007l-7.035,-16.05l0.038,18.975l-6.638,0.015l-0.06,-29.235l8.145,-0.015l7.958,17.37l7.882,-17.407l8.085,-0.015l0.06,29.235l-6.54,0.015Z" style="fill:#1c2b6f;fill-rule:nonzero;"/><path d="M234.945,25.613c2.07,1.762 3.105,4.267 3.112,7.53c0.008,3.42 -1.02,6.082 -3.075,7.98c-2.062,1.897 -4.95,2.85 -8.67,2.857l-5.295,0.008l0.015,8.205l-7.432,0.015l-0.06,-29.198l12.727,-0.03c3.72,-0.007 6.615,0.87 8.678,2.633Zm-13.935,12.532l4.927,-0.007c1.643,0 2.903,-0.413 3.788,-1.223c0.877,-0.81 1.32,-1.98 1.312,-3.517c0,-1.508 -0.45,-2.648 -1.342,-3.42c-0.893,-0.773 -2.153,-1.155 -3.78,-1.155l-4.928,0.007l0.023,9.315Z" style="fill:#005faa;fill-rule:nonzero;"/><path d="M255.203,43.913l-0.225,0l-5.618,0.015l0.015,8.205l-7.433,0.015l-0.06,-29.198l13.05,-0.03c3.87,-0.007 6.863,0.87 8.978,2.625c2.115,1.763 3.172,4.268 3.18,7.53c0.007,2.228 -0.443,4.133 -1.343,5.715c-0.9,1.583 -2.212,2.813 -3.93,3.683l6.15,9.615l-8.407,0.015l-4.357,-8.19Zm-0.233,-5.843c1.612,0 2.865,-0.412 3.758,-1.222c0.885,-0.81 1.327,-1.98 1.327,-3.518c0,-1.507 -0.45,-2.647 -1.343,-3.42c-0.892,-0.772 -2.145,-1.155 -3.757,-1.155l-5.618,0.015l0.023,9.308l5.61,-0.008Z" style="fill:#005faa;fill-rule:nonzero;"/><path d="M293.985,24.54c2.415,1.29 4.305,3.06 5.685,5.303c1.372,2.242 2.07,4.755 2.07,7.537c0.007,2.813 -0.675,5.355 -2.04,7.643c-1.365,2.28 -3.255,4.08 -5.663,5.385c-2.407,1.305 -5.092,1.965 -8.07,1.972c-2.947,0.008 -5.617,-0.637 -8.025,-1.935c-2.407,-1.297 -4.297,-3.082 -5.685,-5.362c-1.38,-2.28 -2.077,-4.823 -2.084,-7.628c-0.008,-2.812 0.674,-5.34 2.047,-7.59c1.373,-2.25 3.255,-4.02 5.64,-5.302c2.385,-1.29 5.063,-1.935 8.04,-1.943c2.977,-0.015 5.67,0.63 8.085,1.92Zm-12.083,5.423c-1.267,0.757 -2.272,1.792 -3.014,3.112c-0.743,1.32 -1.118,2.783 -1.111,4.403c0.008,1.62 0.383,3.09 1.133,4.425c0.75,1.335 1.763,2.385 3.03,3.142c1.268,0.758 2.64,1.133 4.103,1.133c1.477,0 2.835,-0.39 4.072,-1.148c1.23,-0.765 2.213,-1.815 2.933,-3.15c0.72,-1.335 1.08,-2.812 1.08,-4.432c0,-1.62 -0.368,-3.083 -1.103,-4.395c-0.727,-1.313 -1.71,-2.348 -2.947,-3.098c-1.238,-0.75 -2.595,-1.125 -4.073,-1.125c-1.47,0 -2.835,0.375 -4.102,1.133Z" style="fill:#005faa;fill-rule:nonzero;"/><defs><radialGradient id="_Radial2" cx="0" cy="0" r="1" gradientUnits="userSpaceOnUse" gradientTransform="matrix(3.44126,2.15401,-8.58436,13.6493,38.3217,19.7865)"><stop offset="0" style="stop-color:#a7a6a6;stop-opacity:1"/><stop offset="1" style="stop-color:#fff;stop-opacity:1"/></radialGradient><radialGradient id="_Radial3" cx="0" cy="0" r="1" gradientUnits="userSpaceOnUse" gradientTransform="matrix(29.5343,-0.0619166,0.0740474,35.3195,32.0009,37.2866)"><stop offset="0" style="stop-color:#1d1d1b;stop-opacity:1"/><stop offset="0.4" style="stop-color:#1d1d1b;stop-opacity:1"/><stop offset="0.54" style="stop-color:#1d1d1b;stop-opacity:1"/><stop offset="0.56" style="stop-color:#1d1d1b;stop-opacity:1"/><stop offset="1" style="stop-color:#fff;stop-opacity:1"/></radialGradient><linearGradient id="_Linear4" x1="0" y1="0" x2="1" y2="0" gradientUnits="userSpaceOnUse" gradientTransform="matrix(-13.9856,7.126,-7.126,-13.9856,41.3815,45.5275)"><stop offset="0" style="stop-color:#fff;stop-opacity:1"/><stop offset="0.75" style="stop-color:#737373;stop-opacity:1"/><stop offset="1" style="stop-color:#a6a6a6;stop-opacity:1"/></linearGradient><linearGradient id="_Linear5" x1="0" y1="0" x2="1" y2="0" gradientUnits="userSpaceOnUse" gradientTransform="matrix(11.1372,-4.93415,4.93415,11.1372,30.1495,56.0426)"><stop offset="0" style="stop-color:#e5e5e5;stop-opacity:1"/><stop offset="0.57" style="stop-color:#8f8f8f;stop-opacity:1"/><stop offset="0.79" style="stop-color:#919191;stop-opacity:1"/><stop offset="1" style="stop-color:#b8b8b8;stop-opacity:1"/></linearGradient><linearGradient id="_Linear6" x1="0" y1="0" x2="1" y2="0" gradientUnits="userSpaceOnUse" gradientTransform="matrix(5.02777,-2.67338,2.67338,5.02777,34.2086,49.6381)"><stop offset="0" style="stop-color:#fff;stop-opacity:1"/><stop offset="0.2" style="stop-color:#ededed;stop-opacity:1"/><stop offset="0.42" style="stop-color:#e0e0df;stop-opacity:1"/><stop offset="0.7" style="stop-color:#bcbcbc;stop-opacity:1"/><stop offset="0.81" style="stop-color:#fafafa;stop-opacity:1"/><stop offset="1" style="stop-color:#fafafa;stop-opacity:1"/></linearGradient><linearGradient id="_Linear7" x1="0" y1="0" x2="1" y2="0" gradientUnits="userSpaceOnUse" gradientTransform="matrix(27.0699,0,0,27.0699,14.5492,39.4159)"><stop offset="0" style="stop-color:#7c3b8e;stop-opacity:1"/><stop offset="0.6" style="stop-color:#25368b;stop-opacity:1"/><stop offset="1" style="stop-color:#005aa6;stop-opacity:1"/></linearGradient><linearGradient id="_Linear8" x1="0" y1="0" x2="1" y2="0" gradientUnits="userSpaceOnUse" gradientTransform="matrix(10.7423,36.17,-36.17,10.7423,24.42,21.919)"><stop offset="0" style="stop-color:#7dc0eb;stop-opacity:1"/><stop offset="1" style="stop-color:#0092d9;stop-opacity:1"/></linearGradient></defs></svg>