<?xml version="1.0" encoding="utf-8"?>
<!-- Generator: Adobe Illustrator 21.0.0, SVG Export Plug-In . SVG Version: 6.00 Build 0)  -->
<svg version="1.1" id="Laag_1" xmlns="http://www.w3.org/2000/svg" xmlns:xlink="http://www.w3.org/1999/xlink" x="0px" y="0px"
	 width="402.3px" height="105.1px" viewBox="0 0 402.3 105.1" style="enable-background:new 0 0 402.3 105.1;" xml:space="preserve"
	>
<style type="text/css">
	.st0{fill:#FFFFFF;}
</style>
<g>
	<path class="st0" d="M127.8,32.5c2.8,1.2,5.2,2.8,7.2,4.8l-5.7,6.8c-1.3-1.6-2.8-2.8-4.5-3.7c-1.8-0.9-3.5-1.4-5.3-1.4
		c-2,0-3.9,0.5-5.5,1.5c-1.6,1-2.9,2.3-3.9,4.1c-0.9,1.7-1.4,3.6-1.4,5.8c0,2.2,0.5,4.1,1.4,5.8c0.9,1.7,2.2,3.1,3.9,4.1
		c1.7,1,3.5,1.5,5.5,1.5c1.6,0,3.3-0.4,5.1-1.2c1.8-0.8,3.3-1.9,4.7-3.3l5.8,6.1c-2.1,2.2-4.6,3.9-7.5,5.2c-2.9,1.3-5.7,2-8.6,2
		c-3.9,0-7.3-0.9-10.5-2.6c-3.1-1.7-5.6-4.1-7.4-7.2c-1.8-3.1-2.7-6.5-2.7-10.2c0-3.7,0.9-7.1,2.7-10c1.8-3,4.3-5.3,7.5-7.1
		c3.2-1.7,6.7-2.6,10.6-2.6C122.2,30.7,125,31.3,127.8,32.5z"/>
	<path class="st0" d="M168.1,33.2c3.2,1.7,5.7,4.1,7.6,7.1c1.8,3,2.8,6.3,2.8,10.1c0,3.7-0.9,7.1-2.7,10.2c-1.8,3-4.3,5.4-7.5,7.2
		c-3.2,1.7-6.8,2.6-10.8,2.6c-3.9,0-7.5-0.9-10.7-2.6c-3.2-1.7-5.7-4.1-7.6-7.2c-1.8-3-2.8-6.4-2.8-10.2c0-3.7,0.9-7.1,2.7-10.1
		c1.8-3,4.3-5.4,7.5-7.1c3.2-1.7,6.8-2.6,10.7-2.6C161.3,30.6,164.8,31.5,168.1,33.2z M152,40.4c-1.7,1-3,2.4-4,4.1
		c-1,1.8-1.5,3.7-1.5,5.9c0,2.2,0.5,4.1,1.5,5.9c1,1.8,2.3,3.2,4,4.2c1.7,1,3.5,1.5,5.5,1.5c2,0,3.8-0.5,5.4-1.5
		c1.6-1,2.9-2.4,3.9-4.2c1-1.8,1.4-3.8,1.4-5.9s-0.5-4.1-1.5-5.9c-1-1.8-2.3-3.1-3.9-4.1c-1.6-1-3.5-1.5-5.4-1.5
		C155.5,38.9,153.6,39.4,152,40.4z"/>
	<path class="st0" d="M217.7,69.8l-0.1-25.3l-9.3,21.4l-6.5,0l-9.4-21.4l0.1,25.3l-8.9,0l-0.1-39l10.9,0L205,54l10.5-23.2l10.8,0
		l0.1,39L217.7,69.8z"/>
	<path class="st0" d="M268.3,69.6l-0.1-25.3l-9.3,21.4l-6.5,0L243,44.4l0.1,25.3l-8.9,0l-0.1-39l10.9,0l10.6,23.2l10.5-23.2l10.8,0
		l0.1,39L268.3,69.6z"/>
	<path class="st0" d="M313.3,34.2c2.8,2.3,4.1,5.7,4.1,10c0,4.6-1.4,8.1-4.1,10.6c-2.7,2.5-6.6,3.8-11.6,3.8l-7.1,0l0,10.9l-9.9,0
		l-0.1-38.9l17,0C306.7,30.6,310.5,31.8,313.3,34.2z M294.7,50.9l6.6,0c2.2,0,3.9-0.5,5-1.6c1.2-1.1,1.8-2.6,1.8-4.7
		c0-2-0.6-3.5-1.8-4.6c-1.2-1-2.9-1.5-5-1.5l-6.6,0L294.7,50.9z"/>
	<path class="st0" d="M340.3,58.6l-0.3,0l-7.5,0l0,10.9l-9.9,0l-0.1-38.9l17.4,0c5.2,0,9.1,1.2,12,3.5c2.8,2.3,4.2,5.7,4.2,10
		c0,3-0.6,5.5-1.8,7.6c-1.2,2.1-2.9,3.7-5.2,4.9l8.2,12.8l-11.2,0L340.3,58.6z M340,50.8c2.2,0,3.8-0.5,5-1.6
		c1.2-1.1,1.8-2.6,1.8-4.7c0-2-0.6-3.5-1.8-4.6c-1.2-1-2.9-1.5-5-1.5l-7.5,0l0,12.4L340,50.8z"/>
	<path class="st0" d="M392,32.7c3.2,1.7,5.7,4.1,7.6,7.1c1.8,3,2.8,6.3,2.8,10.1c0,3.7-0.9,7.1-2.7,10.2c-1.8,3-4.3,5.4-7.5,7.2
		c-3.2,1.7-6.8,2.6-10.8,2.6c-3.9,0-7.5-0.9-10.7-2.6c-3.2-1.7-5.7-4.1-7.6-7.2c-1.8-3-2.8-6.4-2.8-10.2c0-3.7,0.9-7.1,2.7-10.1
		s4.3-5.4,7.5-7.1c3.2-1.7,6.8-2.6,10.7-2.6C385.2,30.1,388.8,31,392,32.7z M375.9,40c-1.7,1-3,2.4-4,4.1c-1,1.8-1.5,3.7-1.5,5.9
		s0.5,4.1,1.5,5.9c1,1.8,2.3,3.2,4,4.2s3.5,1.5,5.5,1.5c2,0,3.8-0.5,5.4-1.5c1.6-1,2.9-2.4,3.9-4.2s1.4-3.8,1.4-5.9
		c0-2.2-0.5-4.1-1.5-5.9c-1-1.8-2.3-3.1-3.9-4.1c-1.6-1-3.5-1.5-5.4-1.5C379.4,38.4,377.6,38.9,375.9,40z"/>
</g>
<g>
	<path class="st0" d="M53.8,73.2c-11,2.4-22.2-3.4-26.5-13.8c-5-11.9,0.6-25.6,12.5-30.5c4.1-1.7,8.5-2.2,12.9-1.5l7-16.9
		c-3.6-1-7.2-1.5-10.9-1.5c-5.5,0-10.9,1.1-16,3.2c-10.2,4.3-18.1,12.2-22.3,22.4s-4.1,21.4,0.1,31.6c1.3,3,2.9,5.9,4.8,8.5
		c10.4,14.2,28.7,20.2,45.5,15c0,0,0.5-0.2,0.7-0.3c0.9-0.3,1.2-0.7,1.3-0.9l-8.5-15.8C54.4,73,54.1,73.1,53.8,73.2z"/>
</g>
<path class="st0" d="M42.2,0C19.4,0,0.8,18.2,0,40.8l0,0l0.1,64.3c0,0,20.1-0.6,20.1-19.6c0-0.9,0-1.7,0-2.6c-2.3-2-4.4-4.3-6.3-6.9
	c-2-2.7-3.7-5.7-5-8.9C4.4,56.5,4.3,44.7,8.7,34C13.1,23.3,21.4,14.9,32,10.4C41.3,6.6,51.7,6,61.3,8.9l1.1,0.3L56,24.7
	c5.3,4.1,8.6,10.4,8.7,17.6c0,10.6-7.4,19.5-17.3,21.8c-3.4,0.8-5.9,1-7.1,1.3c0.6,0.4,3.5,1.1,5.6,1.6c3.9,1,6.9,1.7,8.6,2.7
	l0.8,0.3l0.5,0.9c0,0,0,0,0,0l0.1,0.2l0,0l4.9,9.2C75,73.4,84.6,58.9,84.6,42.2C84.6,18.9,65.6,0,42.2,0z"/>
<path class="st0" d="M41.1,67.8l0.8,2.7c3.5,1.2,7.4,1.5,11.2,0.7c-1.8-0.9-5.4-1.7-7.8-2.3C43.5,68.5,42.1,68.1,41.1,67.8z"/>
</svg>
